<svg version="1.1" id="Capa_1" xmlns="http://www.w3.org/2000/svg" xmlns:xlink="http://www.w3.org/1999/xlink" x="0px" y="0px"
	 viewBox="0 0 512 512" style="enable-background:new 0 0 512 512;" xml:space="preserve">
<g>
	<path style="fill:#455A64;" d="M160,42.667h-42.667c-5.891,0-10.667-4.776-10.667-10.667s4.776-10.667,10.667-10.667H160
		c5.891,0,10.667,4.776,10.667,10.667S165.891,42.667,160,42.667z"/>
	<path style="fill:#455A64;" d="M277.333,42.667h-42.667C228.776,42.667,224,37.891,224,32s4.776-10.667,10.667-10.667h42.667
		C283.224,21.333,288,26.109,288,32S283.224,42.667,277.333,42.667z"/>
	<path style="fill:#455A64;" d="M394.667,42.667H352c-5.891,0-10.667-4.776-10.667-10.667S346.109,21.333,352,21.333h42.667
		c5.891,0,10.667,4.776,10.667,10.667S400.558,42.667,394.667,42.667z"/>
	<path style="fill:#455A64;" d="M160,490.667h-42.667c-5.891,0-10.667-4.776-10.667-10.667c0-5.891,4.776-10.667,10.667-10.667H160
		c5.891,0,10.667,4.776,10.667,10.667C170.667,485.891,165.891,490.667,160,490.667z"/>
	<path style="fill:#455A64;" d="M277.333,490.667h-42.667c-5.891,0-10.667-4.776-10.667-10.667c0-5.891,4.776-10.667,10.667-10.667
		h42.667c5.891,0,10.667,4.776,10.667,10.667C288,485.891,283.224,490.667,277.333,490.667z"/>
	<path style="fill:#455A64;" d="M394.667,490.667H352c-5.891,0-10.667-4.776-10.667-10.667c0-5.891,4.776-10.667,10.667-10.667
		h42.667c5.891,0,10.667,4.776,10.667,10.667C405.333,485.891,400.558,490.667,394.667,490.667z"/>
	<path style="fill:#455A64;" d="M32,405.333c-5.891,0-10.667-4.776-10.667-10.667V352c0-5.891,4.776-10.667,10.667-10.667
		S42.667,346.109,42.667,352v42.667C42.667,400.558,37.891,405.333,32,405.333z"/>
	<path style="fill:#455A64;" d="M32,288c-5.891,0-10.667-4.776-10.667-10.667v-42.667C21.333,228.776,26.109,224,32,224
		s10.667,4.776,10.667,10.667v42.667C42.667,283.224,37.891,288,32,288z"/>
	<path style="fill:#455A64;" d="M32,170.667c-5.891,0-10.667-4.776-10.667-10.667v-42.667c0-5.891,4.776-10.667,10.667-10.667
		s10.667,4.776,10.667,10.667V160C42.667,165.891,37.891,170.667,32,170.667z"/>
	<path style="fill:#455A64;" d="M480,405.333c-5.891,0-10.667-4.776-10.667-10.667V352c0-5.891,4.776-10.667,10.667-10.667
		c5.891,0,10.667,4.776,10.667,10.667v42.667C490.667,400.558,485.891,405.333,480,405.333z"/>
	<path style="fill:#455A64;" d="M480,288c-5.891,0-10.667-4.776-10.667-10.667v-42.667c0-5.891,4.776-10.667,10.667-10.667
		c5.891,0,10.667,4.776,10.667,10.667v42.667C490.667,283.224,485.891,288,480,288z"/>
	<path style="fill:#455A64;" d="M480,170.667c-5.891,0-10.667-4.776-10.667-10.667v-42.667c0-5.891,4.776-10.667,10.667-10.667
		c5.891,0,10.667,4.776,10.667,10.667V160C490.667,165.891,485.891,170.667,480,170.667z"/>
	<path style="fill:#455A64;" d="M501.333,64h-42.667C452.776,64,448,59.224,448,53.333V10.667C448,4.776,452.776,0,458.667,0h42.667
		C507.224,0,512,4.776,512,10.667v42.667C512,59.224,507.224,64,501.333,64z M469.333,42.667h21.333V21.333h-21.333V42.667z"/>
	<path style="fill:#455A64;" d="M53.333,64H10.667C4.776,64,0,59.224,0,53.333V10.667C0,4.776,4.776,0,10.667,0h42.667
		C59.224,0,64,4.776,64,10.667v42.667C64,59.224,59.224,64,53.333,64z M21.333,42.667h21.333V21.333H21.333V42.667z"/>
	<path style="fill:#455A64;" d="M501.333,512h-42.667c-5.891,0-10.667-4.776-10.667-10.667v-42.667
		c0-5.891,4.776-10.667,10.667-10.667h42.667c5.891,0,10.667,4.776,10.667,10.667v42.667C512,507.224,507.224,512,501.333,512z
		 M469.333,490.667h21.333v-21.333h-21.333V490.667z"/>
	<path style="fill:#455A64;" d="M53.333,512H10.667C4.776,512,0,507.224,0,501.333v-42.667C0,452.776,4.776,448,10.667,448h42.667
		C59.224,448,64,452.776,64,458.667v42.667C64,507.224,59.224,512,53.333,512z M21.333,490.667h21.333v-21.333H21.333V490.667z"/>
</g>
<g>
	<path style="fill:#2196F3;" d="M394.667,170.667c-5.891,0-10.667-4.776-10.667-10.667v-32H149.333v32
		c0,5.891-4.776,10.667-10.667,10.667S128,165.891,128,160v-42.667c0-5.891,4.776-10.667,10.667-10.667h256
		c5.891,0,10.667,4.776,10.667,10.667V160C405.333,165.891,400.558,170.667,394.667,170.667z"/>
	<path style="fill:#2196F3;" d="M266.667,405.333c-5.891,0-10.667-4.776-10.667-10.667V117.333c0-5.891,4.776-10.667,10.667-10.667
		c5.891,0,10.667,4.776,10.667,10.667v277.333C277.333,400.558,272.558,405.333,266.667,405.333z"/>
	<path style="fill:#2196F3;" d="M309.333,405.333H224c-5.891,0-10.667-4.776-10.667-10.667c0-5.891,4.776-10.667,10.667-10.667
		h85.333c5.891,0,10.667,4.776,10.667,10.667C320,400.558,315.224,405.333,309.333,405.333z"/>
</g>
<g>
</g>
<g>
</g>
<g>
</g>
<g>
</g>
<g>
</g>
<g>
</g>
<g>
</g>
<g>
</g>
<g>
</g>
<g>
</g>
<g>
</g>
<g>
</g>
<g>
</g>
<g>
</g>
<g>
</g>
</svg>
